static_grf.mot
version=1
nRows=10
nColumns 19
inDegrees=yes
endheader
time	1_ground_force_vx	1_ground_force_vy	1_ground_force_vz	1_ground_force_px	1_ground_force_py	1_ground_force_pz	1_ground_torque_x	1_ground_torque_y	1_ground_torque_z	2_ground_force_vx	2_ground_force_vy	2_ground_force_vz	2_ground_force_px	2_ground_force_py	2_ground_force_pz	2_ground_torque_x	2_ground_torque_y	2_ground_torque_z
            0.005000	          -10.905693	          427.581276	          -38.585597	           -0.254434	            0.006038	           -0.363003	           -0.061573	            2.414097	           -0.217852	            7.529797	          475.728154	           42.192868	           -0.297447	            0.005478	           -0.716749	           -0.001558	           -0.098437	           -0.008730
            0.005500	          -11.089895	          427.762852	          -38.905364	           -0.254263	            0.006039	           -0.363256	           -0.062715	            2.419061	           -0.220015	            7.901876	          476.466633	           42.054553	           -0.297227	            0.005480	           -0.717127	           -0.001686	           -0.101659	           -0.008973
            0.006000	          -11.043632	          429.203807	          -38.624159	           -0.254200	            0.006036	           -0.362511	           -0.061178	            2.377661	           -0.213966	            7.807573	          476.649934	           42.196034	           -0.297243	            0.005480	           -0.717132	           -0.001491	           -0.091048	           -0.008060
            0.006500	          -10.860419	          427.582268	          -38.814994	           -0.254543	            0.006038	           -0.363073	           -0.063069	            2.483067	           -0.225407	            7.948767	          476.466468	           42.148389	           -0.297503	            0.005478	           -0.716969	           -0.001785	           -0.106987	           -0.009464
            0.007000	          -10.860162	          428.663076	          -38.626933	           -0.254373	            0.006037	           -0.362910	           -0.061509	            2.427822	           -0.218772	            7.994246	          476.835253	           42.055827	           -0.297562	            0.005477	           -0.716668	           -0.002664	           -0.158889	           -0.014014
            0.007500	          -10.997981	          427.762477	          -38.813880	           -0.254480	            0.006038	           -0.363068	           -0.061493	            2.391730	           -0.217018	            7.854382	          476.650437	           42.102158	           -0.297356	            0.005480	           -0.717133	           -0.002032	           -0.123307	           -0.010892
            0.008000	          -10.951782	          428.302527	          -38.628251	           -0.254363	            0.006037	           -0.362737	           -0.061155	            2.391663	           -0.215702	            7.526350	          476.649923	           41.914585	           -0.297008	            0.005481	           -0.717092	           -0.001235	           -0.078192	           -0.006876
            0.008500	          -11.043630	          427.942371	          -38.721281	           -0.254479	            0.006037	           -0.362749	           -0.061394	            2.379036	           -0.215261	            7.719834	          474.992435	           42.143232	           -0.297785	            0.005477	           -0.716765	           -0.001665	           -0.102455	           -0.009090
            0.009000	          -11.227019	          428.663202	          -38.671875	           -0.254344	            0.006037	           -0.362825	           -0.060873	            2.324225	           -0.209680	            7.856438	          476.097452	           42.240971	           -0.297436	            0.005479	           -0.716958	           -0.001643	           -0.099575	           -0.008835
            0.009500	          -11.134812	          428.301902	          -38.490224	           -0.254654	            0.006037	           -0.362855	           -0.061378	            2.360924	           -0.212169	            7.901293	          476.650105	           42.242922	           -0.297521	            0.005479	           -0.717171	           -0.001451	           -0.087526	           -0.007757
